<?xml version="1.0" encoding="UTF-8"?>
<!DOCTYPE svg PUBLIC "-//W3C//DTD SVG 1.1//EN" "http://www.w3.org/Graphics/SVG/1.1/DTD/svg11.dtd">
<!-- Creator: CorelDRAW -->
<svg xmlns="http://www.w3.org/2000/svg" xml:space="preserve" width="1057px" height="374px" version="1.1" style="shape-rendering:geometricPrecision; text-rendering:geometricPrecision; image-rendering:optimizeQuality; fill-rule:evenodd; clip-rule:evenodd"
viewBox="0 0 1195 422.58"
 xmlns:xlink="http://www.w3.org/1999/xlink"
 xmlns:xodm="http://www.corel.com/coreldraw/odm/2003">
 <defs>
  <style type="text/css">
   <![CDATA[
    .fil1 {fill:none}
    .fil0 {fill:#FEFEFE}
   ]]>
  </style>
 </defs>
 <g id="Camada_x0020_1">
  <metadata id="CorelCorpID_0Corel-Layer"/>
  <g id="_2349891740752">
   <path class="fil0" d="M117.26 248.05l90.93 51.26c5.28,2.71 10.49,2.75 15.64,0.2l30.8 -19.32c38.77,-22.34 14.7,-56.67 -12.97,-41.07l-19.01 12.06c-4.88,2.82 -9.34,3.4 -14.63,0.4l-52.92 -29.93c-5.53,-3.04 -8.1,-7.67 -7.42,-14.2 0,-29.23 0,-53.22 0,-82.45 0,-24.91 -41.54,-25.17 -41.47,-0.14l0 66.4 0 39.26c0.61,5.23 2.18,9.69 5.05,13.1 1.97,2.33 3.43,2.99 6,4.43z"/>
   <path class="fil0" d="M316.36 174.53l-90.94 -51.25c-5.28,-2.72 -10.49,-2.76 -15.63,-0.21l-30.81 19.32c-38.77,22.34 -14.69,56.67 12.97,41.08l19.01 -12.07c4.88,-2.82 9.35,-3.4 14.63,-0.4l52.93 29.93c5.52,3.04 8.09,7.67 7.41,14.2 0,29.23 0,53.23 0,82.46 0,24.91 41.55,25.17 41.47,0.13l0 -66.4 0 -39.26c-0.6,-5.23 -2.17,-9.69 -5.05,-13.1 -1.96,-2.33 -3.43,-2.98 -5.99,-4.43z"/>
   <path class="fil0" d="M216.66 187.32c14.02,0 25.06,11.04 25.06,25.05 0,13.59 -11.04,24.63 -25.06,24.63 -13.58,0 -24.63,-11.04 -24.63,-24.63 0,-14.01 11.05,-25.05 24.63,-25.05z"/>
   <g>
    <path class="fil0" d="M429.66 277.12c15.93,0 28.85,-12.93 28.85,-28.85 0,-8.72 -3.9,-16.68 -10.07,-21.94 3.31,-4.66 5.26,-10.37 5.26,-16.53 0,-15.93 -12.92,-28.85 -28.85,-28.85l-43.27 0c-5.26,0 -9.61,4.36 -9.61,9.62l0 76.93c0,5.26 4.35,9.62 9.61,9.62l48.08 0zm0 -38.47l0 0c5.26,0 9.62,4.36 9.62,9.62 0,5.26 -4.36,9.61 -9.62,9.61l-38.46 0 0 -19.23 38.46 0zm-4.81 -38.46l0 0c5.26,0 9.62,4.35 9.62,9.61 0,5.26 -4.36,9.62 -9.62,9.62l-33.65 0 0 -19.23 33.65 0z"/>
    <path class="fil0" d="M483.64 238.65l15.33 0 35.61 35.61c1.8,1.95 4.35,2.86 6.76,2.86 5.26,0 9.61,-4.36 9.61,-9.62 0,-2.4 -0.9,-4.96 -2.85,-6.76l-22.39 -22.24c14.28,-1.8 25.24,-13.97 25.24,-28.7 0,-15.93 -12.92,-28.85 -28.84,-28.85l-48.09 0c-5.25,0 -9.61,4.36 -9.61,9.62l0 76.93c0,5.26 4.36,9.62 9.61,9.62 5.26,0 9.62,-4.36 9.62,-9.62l0 -28.85zm38.47 -38.46l0 0c5.25,0 9.61,4.35 9.61,9.61 0,5.26 -4.36,9.62 -9.61,9.62l-38.47 0 0 -19.23 38.47 0z"/>
    <path class="fil0" d="M644.6 224.23c0,-23.89 -19.38,-43.28 -43.27,-43.28 -23.89,0 -43.28,19.39 -43.28,43.28l0 43.27c0,5.26 4.36,9.62 9.62,9.62 5.26,0 9.62,-4.36 9.62,-9.62l0 -19.23 48.08 0 0 19.23c0,5.26 4.35,9.62 9.61,9.62 5.26,0 9.62,-4.36 9.62,-9.62l0 -43.27zm-67.31 0l0 0c0,-13.23 10.81,-24.04 24.04,-24.04 13.22,0 24.04,10.81 24.04,24.04l0 4.8 -48.08 0 0 -4.8z"/>
    <path class="fil0" d="M661.31 257.88c-5.25,0 -9.61,4.36 -9.61,9.62 0,5.26 4.36,9.62 9.61,9.62l48.09 0c15.92,0 28.85,-12.93 28.85,-28.85 0,-15.93 -12.93,-28.85 -28.85,-28.85l-28.85 0c-5.26,0 -9.62,-4.36 -9.62,-9.62 0,-5.26 4.36,-9.61 9.62,-9.61l43.27 0c5.26,0 9.62,-4.36 9.62,-9.62 0,-5.26 -4.36,-9.62 -9.62,-9.62l-43.27 0c-15.93,0 -28.85,12.92 -28.85,28.85 0,15.93 12.92,28.85 28.85,28.85l28.85 0c5.25,0 9.61,4.36 9.61,9.62 0,5.26 -4.36,9.61 -9.61,9.61l-48.09 0z"/>
    <path class="fil0" d="M762.17 238.65l36.06 0c5.26,0 9.62,-4.36 9.62,-9.62 0,-5.26 -4.36,-9.61 -9.62,-9.61l-36.06 0 0 -19.23 48.08 0c5.26,0 9.62,-4.36 9.62,-9.62 0,-5.26 -4.36,-9.62 -9.62,-9.62l-57.69 0c-5.26,0 -9.62,4.36 -9.62,9.62l0 76.93c0,5.26 4.36,9.62 9.62,9.62 5.26,0 9.61,-4.36 9.61,-9.62l0 -28.85z"/>
    <path class="fil0" d="M813.75 229.03c0,26.6 21.48,48.09 48.08,48.09 26.59,0 48.08,-21.49 48.08,-48.09 0,-26.59 -21.49,-48.08 -48.08,-48.08 -26.6,0 -48.08,21.49 -48.08,48.08zm19.23 0l0 0c0,-15.92 12.92,-28.84 28.85,-28.84 15.93,0 28.85,12.92 28.85,28.84 0,15.93 -12.92,28.85 -28.85,28.85 -15.93,0 -28.85,-12.92 -28.85,-28.85z"/>
    <path class="fil0" d="M935.04 238.65l15.33 0 35.61 35.61c1.8,1.95 4.35,2.86 6.76,2.86 5.26,0 9.61,-4.36 9.61,-9.62 0,-2.4 -0.9,-4.96 -2.85,-6.76l-22.39 -22.24c14.27,-1.8 25.24,-13.97 25.24,-28.7 0,-15.93 -12.92,-28.85 -28.85,-28.85l-48.08 0c-5.26,0 -9.61,4.36 -9.61,9.62l0 76.93c0,5.26 4.35,9.62 9.61,9.62 5.26,0 9.62,-4.36 9.62,-9.62l0 -28.85zm38.46 -38.46l0 0c5.26,0 9.62,4.35 9.62,9.61 0,5.26 -4.36,9.62 -9.62,9.62l-38.46 0 0 -19.23 38.46 0z"/>
    <path class="fil0" d="M1035.9 267.5c0,5.26 4.35,9.62 9.61,9.62 5.26,0 9.62,-4.36 9.62,-9.62l0 -67.31 24.04 0c5.26,0 9.62,-4.36 9.62,-9.62 0,-5.26 -4.36,-9.62 -9.62,-9.62l-67.31 0c-5.26,0 -9.62,4.36 -9.62,9.62 0,5.26 4.36,9.62 9.62,9.62l24.04 0 0 67.31z"/>
   </g>
  </g>
  <rect class="fil1" width="1195" height="422.58"/>
 </g>
</svg>
